<svg id="레이어_1" data-name="레이어 1" xmlns="http://www.w3.org/2000/svg" viewBox="0 0 50 66.77"><defs><style>.cls-1{fill:#222;}.cls-2{fill:#fff;}</style></defs><path class="cls-1" d="M25,0C38.81,0,50,10.5,50,23.46c0,5.61-.88,9.49-4.27,14.59S25,66.77,25,66.77,7.66,43.14,4.27,38.05,0,29.07,0,23.46C0,10.5,11.19,0,25,0Z" transform="translate(0 0)"/><path class="cls-2" d="M25,6.25H25A18.4,18.4,0,0,1,43.75,24.32V25a18.39,18.39,0,0,1-18,18.78h-.84A18.39,18.39,0,0,1,6.25,25.65c0-.23,0-.45,0-.68A18.4,18.4,0,0,1,24.32,6.25Z" transform="translate(0 0)"/><path d="M22.6,23.78l0,.22H22.1V22.81h.45c0,.44.36.59.73.7a2.44,2.44,0,0,0,1.39.06.66.66,0,0,0,.28-.13.39.39,0,0,0,.16-.26.34.34,0,0,0-.2-.21,4.67,4.67,0,0,0-.67-.13l-1.35-.19a1.44,1.44,0,0,1-.45-.17.83.83,0,0,1-.08-1.43,2,2,0,0,1,1.15-.34,2.9,2.9,0,0,1,1.73.33.9.9,0,0,0,.05-.09.15.15,0,0,0,0-.07h.42v1h-.37c-.1-.44-.48-.56-.86-.65a2.84,2.84,0,0,0-1.16,0,1.76,1.76,0,0,0-.3.1c-.12.05-.23.14-.18.28a.34.34,0,0,0,.23.19c.33.06.67.08,1,.13a8.93,8.93,0,0,1,1.27.26.84.84,0,0,1,.59.88.85.85,0,0,1-.53.79,2.87,2.87,0,0,1-1.78.21,5.73,5.73,0,0,1-.9-.25Z" transform="translate(0 0)"/><path d="M14,21.29v-.44h1.44a.34.34,0,0,1,.18.09l1.77,1.6.18.15c0-.45,0-.86,0-1.26,0-.05-.1-.13-.16-.15a3.23,3.23,0,0,0-.44,0v-.42h1.78v.42h-.29c-.22,0-.25,0-.25.25v2.4h-.53a.44.44,0,0,1-.19-.1l-2-1.84a1.93,1.93,0,0,0-.2-.17,1.28,1.28,0,0,0,0,.17v1.25c0,.23,0,.27.27.28h.34v.39H14.06v-.4h.37a.17.17,0,0,0,.19-.19c0-.6,0-1.19,0-1.79a.22.22,0,0,0-.23-.24Z" transform="translate(0 0)"/><path d="M31.2,21.29v-.44h1.46a.28.28,0,0,1,.17.1l1.78,1.6.17.14V21.44c0-.11-.09-.15-.2-.15h-.42v-.43h1.78v.43h-.3c-.17,0-.24.06-.24.24v2.4a1,1,0,0,1-.87-.22c-.67-.64-1.39-1.25-2.12-1.91v1.46c0,.21,0,.25.26.27H33v.4H31.25v-.41h.35c.15,0,.22-.07.21-.22V21.55a.23.23,0,0,0-.26-.26Z" transform="translate(0 0)"/><path d="M13.44,23.55v.37h-2v-.38l.67,0-.37-.63a.24.24,0,0,0-.15,0c-.31,0-.61,0-.91,0a.27.27,0,0,0-.2.11c-.11.16-.21.34-.33.55l.52,0v.39H9v-.36l0,0c.31,0,.46-.13.6-.39.38-.72.79-1.42,1.18-2.14a.29.29,0,0,1,.24-.15.64.64,0,0,1,.76.44c.29.61.63,1.18,1,1.77C13,23.47,13,23.47,13.44,23.55ZM10.75,22.4h.76l-.38-.7Z" transform="translate(0 0)"/><path d="M28.72,23.92v-.38l.67,0c-.14-.24-.26-.45-.39-.65,0,0-.08,0-.12,0H28c-.05,0-.11,0-.13,0-.13.19-.25.39-.39.62l.52,0v.39H26.31v-.36l0,0a.58.58,0,0,0,.6-.38c.37-.72.78-1.42,1.17-2.13a.3.3,0,0,1,.27-.17.63.63,0,0,1,.73.42c.3.63.66,1.22,1,1.83.14.25.25.51.63.41v.4ZM28,22.4h.76l-.38-.7Z" transform="translate(0 0)"/><path d="M36.34,21.3v-.41h2.11v.41l-.36,0,.76.9.77-.9-.38,0v-.4H41v.41a2.09,2.09,0,0,1-.25,0,.51.51,0,0,0-.48.22c-.32.36-.63.72-1,1.07a.45.45,0,0,0-.14.36,2.67,2.67,0,0,1,0,.4c0,.13.06.18.18.18h.39v.37H37.65v-.37H38c.13,0,.19-.06.18-.19v0a.94.94,0,0,0-.32-.9,8.39,8.39,0,0,1-.74-.84.65.65,0,0,0-.64-.29Z" transform="translate(0 0)"/><path class="cls-2" d="M10.75,22.4l.38-.7.38.7Z" transform="translate(0 0)"/><path class="cls-2" d="M28,22.4l.38-.7.38.7Z" transform="translate(0 0)"/><path d="M14.26,28.78l0,.22h-.46V27.83h.44c0,.43.36.58.72.69a2.31,2.31,0,0,0,1.35.06.79.79,0,0,0,.28-.12.37.37,0,0,0,.15-.26c0-.07-.11-.18-.19-.2a4.69,4.69,0,0,0-.65-.14c-.44-.06-.89-.11-1.33-.18a1.79,1.79,0,0,1-.44-.16A.83.83,0,0,1,14,26.11a2.07,2.07,0,0,1,1.13-.33,2.84,2.84,0,0,1,1.69.32l.05-.08a.17.17,0,0,0,0-.07h.41v1H17c-.1-.44-.47-.55-.84-.64a2.74,2.74,0,0,0-1.14,0c-.1,0-.19.06-.29.09s-.22.15-.18.28a.34.34,0,0,0,.23.19c.32.06.66.07,1,.13a10.08,10.08,0,0,1,1.24.25.82.82,0,0,1,.58.86.86.86,0,0,1-.53.78,2.94,2.94,0,0,1-1.73.2,7.34,7.34,0,0,1-.89-.24Z" transform="translate(0 0)"/><path d="M26.17,26.34a2.48,2.48,0,0,0-1.75-.6,2.7,2.7,0,0,0-1.75.6,1.49,1.49,0,0,0,0,2.19,2.59,2.59,0,0,0,1.75.6h0a2.49,2.49,0,0,0,1.75-.6,1.5,1.5,0,0,0,.47-1.09A1.43,1.43,0,0,0,26.17,26.34Zm-.81,2a1.36,1.36,0,0,1-.94.37h0a1.36,1.36,0,0,1-.94-.37,1.31,1.31,0,0,1,0-1.77,1.39,1.39,0,0,1,1.88,0,1.21,1.21,0,0,1,.34.88A1.19,1.19,0,0,1,25.36,28.32Z" transform="translate(0 0)"/><path d="M27,25.93h2.78l.59,0a2.15,2.15,0,0,1,.58.15,1,1,0,0,1,.4.28.57.57,0,0,1,.14.38.62.62,0,0,1-.37.55,2.41,2.41,0,0,1-.87.28l.93.72,0,0a.66.66,0,0,0,.16.11l.15.05.21,0h.19v.41H30.82a.89.89,0,0,1-.61-.23L29,27.65h-.45v.6a.38.38,0,0,0,0,.19s0,0,.08.07l.3,0h.21v.41H27v-.41h.27a.63.63,0,0,0,.23,0,.17.17,0,0,0,.1-.07.5.5,0,0,0,0-.16V26.58a.41.41,0,0,0,0-.14.12.12,0,0,0-.08-.06l-.25,0H27Zm1.59.5v.78h.74a2.73,2.73,0,0,0,.59-.05.84.84,0,0,0,.3-.14.32.32,0,0,0,.1-.22.26.26,0,0,0-.1-.21.53.53,0,0,0-.26-.12,2.45,2.45,0,0,0-.55,0Z" transform="translate(0 0)"/><path d="M35.76,28.14v.11c0,.1,0,.12,0,.15a.18.18,0,0,1-.12.08l-.34,0H34.05l-.06,0a.78.78,0,0,1,0-.19v-.69h.2a2.24,2.24,0,0,1,.36,0,.3.3,0,0,1,.13.09.32.32,0,0,1,0,.19V28h.58V26.74H34.7v.11a.45.45,0,0,1,0,.21.24.24,0,0,1-.13.08,1.39,1.39,0,0,1-.34,0H34v-.79h1.62a.29.29,0,0,1,.13.08.19.19,0,0,1,0,.15v.13h.58V25.57h-.58v.12c0,.1,0,.11,0,.15a.23.23,0,0,1-.12.08l-.23,0h-3v.41h.2l.23,0s.07,0,.08.07a.29.29,0,0,1,0,.17v1.63a.67.67,0,0,1,0,.18.23.23,0,0,1-.11.08l-.31,0h-.11v.41h3.22a.24.24,0,0,1,.14,0s0,0,0,0,0,0,0,.14v.13h.58V28.14Z" transform="translate(0 0)"/><path d="M21.36,25.77v.11a.3.3,0,0,1,0,.17l-.05,0a.31.31,0,0,1-.13,0H18.66a.28.28,0,0,1-.13,0l-.05,0a.23.23,0,0,1,0-.17v-.11h-.57v1.16h.57V26.8a.19.19,0,0,1,0-.15l0,0a.24.24,0,0,1,.14-.05h.65a.12.12,0,0,1,.1.09h0v1.75a.38.38,0,0,1,0,.19.22.22,0,0,1-.09.07H18.8v.41H21V28.7h-.44l-.1,0a.17.17,0,0,1-.06-.06.82.82,0,0,1,0-.19V26.69h0a.13.13,0,0,1,.11-.12h.65a.24.24,0,0,1,.14.05l0,0a.19.19,0,0,1,.05.15v.13h.57V25.77Z" transform="translate(0 0)"/></svg>